<svg width="17" height="18" viewBox="0 0 17 18" fill="none" xmlns="http://www.w3.org/2000/svg">
<path d="M6.59302 7.55176C6.05102 7.55176 5.62402 8.00176 5.62402 8.55123C5.62402 9.09881 6.06102 9.55071 6.59302 9.55071C7.13402 9.55071 7.56102 9.09881 7.56102 8.55123C7.57202 8.00081 7.13402 7.55176 6.59302 7.55176ZM10.061 7.55176C9.51902 7.55176 9.09202 8.00176 9.09202 8.55123C9.09202 9.09881 9.52902 9.55071 10.061 9.55071C10.602 9.55071 11.029 9.09881 11.029 8.55123C11.028 8.00081 10.602 7.55176 10.061 7.55176Z" fill="#B3CDFF"/>
<path d="M14.678 0H1.94701C1.69067 0.000621255 1.43696 0.0490693 1.20039 0.142578C0.963812 0.236086 0.748992 0.372824 0.568197 0.544984C0.387401 0.717144 0.244169 0.921355 0.146678 1.14596C0.0491882 1.37056 -0.00065103 1.61115 6.42064e-06 1.854V14.022C6.42064e-06 15.048 0.874007 15.876 1.94701 15.876H12.72L12.215 14.2096L13.432 15.2811L14.581 16.2891L16.625 18V1.854C16.6257 1.61115 16.5758 1.37056 16.4783 1.14596C16.3808 0.921355 16.2376 0.717144 16.0568 0.544984C15.876 0.372824 15.6612 0.236086 15.4246 0.142578C15.188 0.0490693 14.9343 0.000621255 14.678 0ZM11.01 11.754C11.01 11.754 10.668 11.3675 10.384 11.0236C11.628 10.6901 12.103 9.95305 12.103 9.95305C11.713 10.1956 11.343 10.368 11.01 10.4855C9.79769 10.9661 8.46263 11.0973 7.17201 10.8625C6.69511 10.7738 6.22782 10.6438 5.77601 10.4741C5.53772 10.3884 5.30614 10.2867 5.08301 10.17C5.05401 10.1501 5.02601 10.1425 4.99801 10.1245C4.98303 10.1178 4.96973 10.1081 4.95901 10.0961C4.78801 10.0071 4.69301 9.94453 4.69301 9.94453C4.69301 9.94453 5.14901 10.6645 6.35601 11.0065C6.07101 11.3476 5.71901 11.754 5.71901 11.754C3.62001 11.6905 2.82301 10.386 2.82301 10.386C2.82301 7.488 4.19101 5.13947 4.19101 5.13947C5.55901 4.16653 6.86001 4.194 6.86001 4.194L6.95501 4.302C5.24501 4.77095 4.45601 5.48147 4.45601 5.48147C4.45601 5.48147 4.66601 5.37347 5.01701 5.22095C6.03301 4.79842 6.84001 4.68095 7.17301 4.65347C7.23001 4.64495 7.27801 4.63547 7.33501 4.63547C8.98221 4.42518 10.6572 4.72175 12.113 5.48147C12.113 5.48147 11.362 4.80695 9.74701 4.33895L9.88001 4.19495C9.88001 4.19495 11.182 4.16747 12.549 5.14042C12.549 5.14042 13.917 7.48895 13.917 10.3869C13.917 10.386 13.11 11.6905 11.01 11.754Z" fill="#B3CDFF"/>
</svg>
