<svg width="24" height="24" viewBox="0 0 24 24" fill="none" xmlns="http://www.w3.org/2000/svg">
<path d="M4.28513 7.26878C4.29666 7.15399 4.28093 7.03811 4.23923 6.93055C4.19753 6.82299 4.13102 6.72679 4.04513 6.64978L2.27513 4.51678V4.19678H7.77313L12.0231 13.5168L15.7591 4.19678H21.0001V4.51578L19.4851 5.96678C19.4217 6.01616 19.3727 6.08163 19.3432 6.15636C19.3136 6.2311 19.3046 6.31239 19.3171 6.39178V17.0578C19.3044 17.1372 19.3133 17.2185 19.3429 17.2933C19.3724 17.3681 19.4216 17.4335 19.4851 17.4828L20.9641 18.9338V19.2528H13.5281V18.9338L15.0571 17.4468C15.2091 17.2968 15.2091 17.2518 15.2091 17.0228V8.40078L10.9501 19.2178H10.3751L5.41713 8.40078V15.6498C5.37613 15.9548 5.47713 16.2618 5.69213 16.4828L7.68413 18.8998V19.2188H2.03613V18.8998L4.02813 16.4828C4.13293 16.3736 4.21075 16.2414 4.25537 16.0967C4.29999 15.9521 4.31018 15.799 4.28513 15.6498V7.26878Z" fill="#B3CDFF"/>
</svg>
