<svg width="50" height="50" viewBox="0 0 50 50" fill="none" xmlns="http://www.w3.org/2000/svg">
<rect x="1" y="1" width="48" height="48" rx="24" stroke="url(#paint0_linear_23_331)" stroke-width="2"/>
<path d="M19.7415 22.7916C19.638 22.8328 19.5291 22.8527 19.422 22.8527C19.1863 22.8527 18.9554 22.7568 18.788 22.5785L11.447 14.7598C11.1472 14.4406 11.132 13.9481 11.4104 13.6108L13.1318 11.5287C13.2869 11.3412 13.5139 11.227 13.7572 11.2147C14.0004 11.2016 14.2374 11.292 14.4113 11.463L20.0308 16.9917C20.1974 17.1551 20.2906 17.3782 20.2906 17.6112V21.9835C20.2906 22.3399 20.0733 22.6605 19.7415 22.7916Z" fill="url(#paint1_linear_23_331)"/>
<path d="M19.7529 14.7216C19.6444 14.7669 19.5305 14.7889 19.4171 14.7889C19.1935 14.7889 18.9733 14.7025 18.8073 14.5394L15.7911 11.5722C15.5395 11.3248 15.4625 10.9495 15.5958 10.6232C15.7299 10.2967 16.0475 10.0833 16.4008 10.0833H19.4169C19.8971 10.0833 20.286 10.4724 20.286 10.9527V13.9198C20.286 14.2699 20.076 14.586 19.7529 14.7216Z" fill="url(#paint2_linear_23_331)"/>
<path d="M26.9181 13.7816C26.7531 13.9411 26.535 14.0256 26.3142 14.0256C26.1992 14.0256 26.084 14.0029 25.9746 13.9562C25.6538 13.8201 25.4448 13.5053 25.4448 13.1563V10.9831C25.4448 10.5031 25.8342 10.1139 26.3142 10.1139H27.9917C28.4719 10.1139 28.8611 10.5031 28.8611 10.9831V11.5348C28.8611 11.7705 28.7655 11.9965 28.5961 12.1601L26.9181 13.7816Z" fill="url(#paint3_linear_23_331)"/>
<path d="M31.235 22.5784C31.0672 22.7567 30.8367 22.8525 30.6005 22.8525C30.4937 22.8525 30.385 22.8326 30.2811 22.7915C29.9498 22.6603 29.7319 22.3398 29.7319 21.9834V17.6103C29.7319 17.3773 29.8257 17.1539 29.992 16.9905L35.6113 11.4629C35.7851 11.2919 36.0177 11.2015 36.2657 11.2146C36.5092 11.2269 36.736 11.3411 36.891 11.5286L38.6119 13.6107C38.8911 13.9479 38.8754 14.4405 38.5755 14.7597L31.235 22.5784Z" fill="url(#paint4_linear_23_331)"/>
<path d="M38.9846 15.5901C39.1556 15.4081 39.4002 15.3044 39.6461 15.3162C39.8951 15.324 40.1295 15.439 40.2884 15.6312L43.2396 19.1996C43.5075 19.5235 43.5052 19.992 43.2344 20.3138L37.8885 26.6598C37.7198 26.8598 37.4747 26.9688 37.2233 26.9688C37.1238 26.9688 37.023 26.9515 36.9254 26.9159C36.5826 26.7907 36.3545 26.4644 36.3545 26.0991V18.7366C36.3545 18.5153 36.4388 18.3027 36.5902 18.1414L38.9846 15.5901Z" fill="url(#paint5_linear_23_331)"/>
<path d="M33.9572 26.7668C34.1947 26.4913 34.5784 26.3918 34.9188 26.5185C35.26 26.6447 35.4857 26.97 35.4857 27.3334V29.194C35.4857 29.3987 35.4137 29.5972 35.2815 29.7538L30.8314 35.0384C30.6622 35.2385 30.4179 35.3483 30.1657 35.3483C30.0665 35.3483 29.9651 35.3307 29.8683 35.2954C29.525 35.1702 29.2969 34.8437 29.2969 34.4786V32.0666C29.2969 31.8589 29.3712 31.6578 29.5069 31.4999L33.9572 26.7668Z" fill="url(#paint6_linear_23_331)"/>
<path d="M27.3823 19.5556C27.6314 19.3103 28.004 19.239 28.3274 19.3736C28.6511 19.5087 28.8611 19.8251 28.8611 20.1752V26.3769L33.9823 20.9236C34.2258 20.6641 34.6034 20.579 34.9355 20.7107C35.2673 20.8419 35.4846 21.1621 35.4846 21.5188V23.5095C35.4846 23.7302 35.4005 23.9429 35.2494 24.1039L28.4264 31.3805V37.5738C28.4264 37.7789 28.3541 37.9776 28.2216 38.1344L26.9788 39.6079C26.8096 39.8077 26.5653 39.9166 26.3142 39.9166C26.2136 39.9166 26.1128 39.8993 26.0157 39.8643C25.6732 39.7387 25.4448 39.4125 25.4448 39.0476V21.8231C25.4448 21.5848 25.5425 21.3575 25.7151 21.1933L27.3823 19.5556Z" fill="url(#paint7_linear_23_331)"/>
<path d="M15.1051 26.5698C15.4463 26.4428 15.8291 26.5429 16.0661 26.8181L20.5167 31.5002C20.6521 31.6581 20.7264 31.8592 20.7264 32.0668V34.4788C20.7264 34.8439 20.4984 35.1704 20.1551 35.2956C20.0579 35.3309 19.9573 35.3485 19.8576 35.3485C19.6059 35.3485 19.3608 35.2388 19.1924 35.0387L14.7418 29.7541C14.6101 29.5975 14.5376 29.399 14.5376 29.1942V27.3847C14.5376 27.021 14.7638 26.6958 15.1051 26.5698Z" fill="url(#paint8_linear_23_331)"/>
<path d="M6.78083 19.2001L9.73162 15.6317C9.89057 15.4395 10.1244 15.3251 10.3737 15.3167C10.6269 15.3073 10.8639 15.4086 11.0346 15.5901L21.1543 26.3495V10.9528C21.1543 10.4725 21.5437 10.0834 22.0234 10.0834H23.7014C24.1814 10.0834 24.5705 10.4725 24.5705 10.9528V17.1953L29.725 12.2388V10.9528C29.725 10.4725 30.1144 10.0834 30.5941 10.0834H33.6155C33.9682 10.0834 34.2861 10.2968 34.4199 10.6234C34.5535 10.9496 34.4765 11.3249 34.2251 11.5723L24.5705 21.0701V39.017C24.5705 39.3823 24.3422 39.7086 23.9989 39.8338C23.9015 39.8691 23.8009 39.8864 23.7017 39.8864C23.4495 39.8864 23.2044 39.7769 23.0363 39.5763L21.7972 38.1032C21.6652 37.9467 21.5932 37.7486 21.5932 37.544V31.3468L13.6656 22.9204V26.0996C13.6656 26.4649 13.4377 26.7912 13.095 26.9164C12.7509 27.0426 12.3665 26.9392 12.1313 26.6603L6.78544 20.3143C6.51499 19.9925 6.51242 19.524 6.78083 19.2001Z" fill="url(#paint9_linear_23_331)"/>
<defs>
<linearGradient id="paint0_linear_23_331" x1="25" y1="0" x2="25" y2="50" gradientUnits="userSpaceOnUse">
<stop stop-color="#C53364"/>
<stop offset="1" stop-color="#6C89C0"/>
</linearGradient>
<linearGradient id="paint1_linear_23_331" x1="11.2114" y1="22.8527" x2="11.2114" y2="11.226" gradientUnits="userSpaceOnUse">
<stop stop-color="#622774"/>
<stop offset="1" stop-color="#C53364"/>
</linearGradient>
<linearGradient id="paint2_linear_23_331" x1="15.5313" y1="14.7889" x2="15.5313" y2="-15.0109" gradientUnits="userSpaceOnUse">
<stop stop-color="#622774"/>
<stop offset="1" stop-color="#C53364"/>
</linearGradient>
<linearGradient id="paint3_linear_23_331" x1="25.4448" y1="14.0256" x2="25.4448" y2="-15.7742" gradientUnits="userSpaceOnUse">
<stop stop-color="#622774"/>
<stop offset="1" stop-color="#C53364"/>
</linearGradient>
<linearGradient id="paint4_linear_23_331" x1="29.7319" y1="22.8525" x2="29.7319" y2="-6.94733" gradientUnits="userSpaceOnUse">
<stop stop-color="#622774"/>
<stop offset="1" stop-color="#C53364"/>
</linearGradient>
<linearGradient id="paint5_linear_23_331" x1="36.3545" y1="26.9688" x2="36.3545" y2="-2.83111" gradientUnits="userSpaceOnUse">
<stop stop-color="#622774"/>
<stop offset="1" stop-color="#C53364"/>
</linearGradient>
<linearGradient id="paint6_linear_23_331" x1="29.2969" y1="35.3483" x2="29.2969" y2="5.5484" gradientUnits="userSpaceOnUse">
<stop stop-color="#622774"/>
<stop offset="1" stop-color="#C53364"/>
</linearGradient>
<linearGradient id="paint7_linear_23_331" x1="25.4448" y1="39.9166" x2="25.4448" y2="28.29" gradientUnits="userSpaceOnUse">
<stop stop-color="#622774"/>
<stop offset="1" stop-color="#C53364"/>
</linearGradient>
<linearGradient id="paint8_linear_23_331" x1="14.5376" y1="35.3485" x2="14.5376" y2="5.54864" gradientUnits="userSpaceOnUse">
<stop stop-color="#622774"/>
<stop offset="1" stop-color="#C53364"/>
</linearGradient>
<linearGradient id="paint9_linear_23_331" x1="6.58105" y1="39.8864" x2="6.58105" y2="10.0865" gradientUnits="userSpaceOnUse">
<stop stop-color="#622774"/>
<stop offset="1" stop-color="#C53364"/>
</linearGradient>
</defs>
</svg>
